<svg xmlns="http://www.w3.org/2000/svg" xmlns:xlink="http://www.w3.org/1999/xlink" id="Capa_1" x="0" y="0" version="1.1" viewBox="0 0 204 204" style="enable-background:new 0 0 204 204" xml:space="preserve"><style type="text/css">.st0{fill:#099cec}.st1{fill:#066da5}.st2{fill:#fff}.st3,.st4{opacity:.6;fill:#101e26;enable-background:new}.st4{opacity:.1}</style><title>full_vertical</title><desc>Created with Sketch.</desc><polygon id="Rectangle" points="64 65 75 65 75 75 64 75" class="st0"/><polygon id="Rectangle_1_" points="77 65 88 65 88 75 77 75" class="st0"/><polygon id="Rectangle_2_" points="90 65 101 65 101 75 90 75" class="st0"/><polygon id="Rectangle_3_" points="103 65 114 65 114 75 103 75" class="st0"/><polygon id="Rectangle_4_" points="116 65 127 65 127 75 116 75" class="st0"/><polygon id="Rectangle_5_" points="77 53 88 53 88 63 77 63" class="st0"/><polygon id="Rectangle_6_" points="90 53 101 53 101 63 90 63" class="st0"/><polygon id="Rectangle_7_" points="103 53 114 53 114 63 103 63" class="st0"/><polygon id="Rectangle_8_" points="103 41 114 41 114 51 103 51" class="st0"/><path id="Fill-1" d="M172.6,134.4c-0.4-0.4-0.9-0.7-1.5-0.9c-0.6-0.2-1.3-0.4-2-0.5c-0.7-0.1-1.4-0.1-2-0.1	c-1.4,0-2.8,0.2-4,0.7c-1.3,0.5-2.4,1.1-3.5,2v-0.4c0-0.6-0.2-1.1-0.7-1.6c-0.4-0.4-1-0.7-1.6-0.7c-0.6,0-1.2,0.2-1.6,0.7	c-0.4,0.4-0.7,1-0.7,1.6v19.6c0,0.6,0.2,1.1,0.7,1.6c0.4,0.4,1,0.7,1.6,0.7c0.6,0,1.1-0.2,1.6-0.7c0.4-0.4,0.7-1,0.7-1.6V145	c0-1,0.2-2,0.6-2.9c0.4-0.9,0.9-1.7,1.6-2.4c0.7-0.7,1.5-1.2,2.4-1.6c0.9-0.4,1.9-0.6,2.9-0.6c1.1,0,2,0.2,2.9,0.5	c0.4,0.2,0.7,0.2,0.9,0.2c0.3,0,0.6-0.1,0.9-0.2c0.3-0.1,0.5-0.3,0.7-0.5c0.2-0.2,0.4-0.4,0.5-0.7c0.1-0.3,0.2-0.6,0.2-0.9	C173.2,135.3,173,134.8,172.6,134.4z M133.8,142.7c0.2-0.8,0.6-1.5,1.1-2.2c0.5-0.7,1-1.2,1.7-1.7c0.6-0.5,1.4-0.8,2.1-1.1	c0.8-0.3,1.6-0.4,2.4-0.4c0.8,0,1.6,0.1,2.4,0.4c0.8,0.3,1.5,0.6,2.1,1.1c0.6,0.5,1.2,1,1.7,1.7c0.5,0.7,0.8,1.4,1.1,2.2H133.8z M149.6,136.5c-2.4-2.3-5.2-3.5-8.5-3.5c-3.3,0-6.2,1.2-8.5,3.5c-2.3,2.4-3.5,5.2-3.5,8.5c0,3.3,1.2,6.2,3.5,8.5	c2.3,2.3,5.2,3.5,8.5,3.5c3,0,5.6-1,7.9-2.9c0.4-0.4,0.6-1,0.6-1.6c0-0.6-0.2-1.2-0.6-1.6c-0.4-0.4-1-0.6-1.6-0.6	c-0.6,0-1.1,0.2-1.5,0.6c-0.7,0.6-1.4,1-2.2,1.3c-0.8,0.3-1.7,0.4-2.6,0.4c-0.8,0-1.6-0.1-2.4-0.4c-0.8-0.3-1.5-0.6-2.1-1.1	c-0.6-0.5-1.2-1-1.7-1.7c-0.5-0.7-0.8-1.4-1.1-2.2h17c0.6,0,1.2-0.2,1.6-0.6c0.4-0.4,0.7-1,0.7-1.6c0-1.7-0.3-3.2-0.9-4.6	C151.6,138.9,150.7,137.6,149.6,136.5z M127,135.2c0-0.3-0.1-0.6-0.2-0.9s-0.3-0.5-0.5-0.7c-0.2-0.2-0.4-0.4-0.7-0.5	c-0.3-0.1-0.6-0.2-0.9-0.2c-0.4,0-0.8,0.1-1.2,0.3l-12.8,8.4v-16.8c0-0.6-0.2-1.2-0.7-1.6c-0.4-0.4-1-0.7-1.6-0.7	c-0.6,0-1.2,0.2-1.6,0.7c-0.4,0.4-0.7,1-0.7,1.6v29.9c0,0.6,0.2,1.1,0.7,1.6c0.4,0.4,1,0.7,1.6,0.7c0.6,0,1.1-0.2,1.6-0.7	c0.4-0.4,0.7-1,0.7-1.6V147l2.6-1.7l9.9,11.1c0.4,0.4,0.9,0.6,1.5,0.6c0.3,0,0.6-0.1,0.9-0.2c0.3-0.1,0.5-0.3,0.7-0.5	c0.2-0.2,0.4-0.4,0.5-0.7c0.1-0.3,0.2-0.6,0.2-0.9c0-0.6-0.2-1.1-0.6-1.6l-9.2-10.4l9-5.8C126.7,136.6,127,136,127,135.2z M90.1,139.6c0.7-0.7,1.5-1.2,2.4-1.6c0.9-0.4,1.9-0.6,2.9-0.6c0.9,0,1.8,0.2,2.6,0.5c0.8,0.3,1.6,0.8,2.3,1.4	c0.4,0.3,0.9,0.5,1.5,0.5c0.6,0,1.2-0.2,1.6-0.6c0.4-0.4,0.6-1,0.6-1.6c0-0.7-0.3-1.2-0.8-1.7c-2.2-1.9-4.8-2.9-7.8-2.9	c-3.3,0-6.2,1.2-8.5,3.5c-2.3,2.4-3.5,5.2-3.5,8.5c0,3.3,1.2,6.2,3.5,8.5c2.3,2.3,5.2,3.5,8.5,3.5c3,0,5.6-1,7.8-2.9	c0.5-0.5,0.7-1,0.7-1.7c0-0.6-0.2-1.2-0.6-1.6c-0.4-0.4-1-0.6-1.6-0.6c-0.5,0-1,0.2-1.4,0.5c-0.7,0.6-1.5,1.1-2.3,1.4	c-0.8,0.3-1.7,0.5-2.6,0.5c-1,0-2-0.2-2.9-0.6c-0.9-0.4-1.7-0.9-2.4-1.6c-0.7-0.7-1.2-1.5-1.6-2.4c-0.4-0.9-0.6-1.9-0.6-2.9	c0-1,0.2-2,0.6-2.9C88.9,141.1,89.4,140.3,90.1,139.6z M76.2,147.9c-0.4,0.9-0.9,1.7-1.6,2.4c-0.7,0.7-1.5,1.2-2.4,1.6	c-0.9,0.4-1.9,0.6-2.9,0.6c-1.1,0-2-0.2-3-0.6c-0.9-0.4-1.7-0.9-2.4-1.6c-0.7-0.7-1.2-1.5-1.6-2.4c-0.4-0.9-0.6-1.9-0.6-2.9	c0-1,0.2-2,0.6-2.9c0.4-0.9,0.9-1.7,1.6-2.4c0.7-0.7,1.5-1.2,2.4-1.6c0.9-0.4,1.9-0.6,3-0.6c1,0,2,0.2,2.9,0.6	c0.9,0.4,1.7,0.9,2.4,1.6c0.7,0.7,1.2,1.5,1.6,2.4c0.4,0.9,0.6,1.9,0.6,2.9C76.8,146,76.6,147,76.2,147.9z M77.8,136.5	c-2.4-2.3-5.2-3.5-8.5-3.5c-3.3,0-6.2,1.2-8.5,3.5c-2.4,2.4-3.5,5.2-3.5,8.5c0,3.3,1.2,6.2,3.5,8.5c2.3,2.3,5.2,3.5,8.5,3.5	c3.3,0,6.1-1.2,8.5-3.5c2.3-2.3,3.5-5.2,3.5-8.5c0-1.7-0.3-3.2-0.9-4.6C79.8,138.9,78.9,137.6,77.8,136.5z M50,147.9	c-0.4,0.9-0.9,1.7-1.6,2.4c-0.7,0.7-1.5,1.2-2.4,1.6c-0.9,0.4-1.9,0.6-2.9,0.6c-1.1,0-2-0.2-3-0.6c-0.9-0.4-1.7-0.9-2.4-1.6	c-0.7-0.7-1.2-1.5-1.6-2.4c-0.4-0.9-0.6-1.9-0.6-2.9c0-1,0.2-2,0.6-2.9c0.4-0.9,0.9-1.7,1.6-2.4c0.7-0.7,1.5-1.2,2.4-1.6	c0.9-0.4,1.9-0.6,3-0.6c1,0,2,0.2,2.9,0.6c0.9,0.4,1.7,0.9,2.4,1.6c0.7,0.7,1.2,1.5,1.6,2.4c0.4,0.9,0.6,1.9,0.6,2.9	C50.6,146,50.4,147,50,147.9z M52.8,122.6c-0.6,0-1.2,0.2-1.6,0.6c-0.4,0.4-0.6,1-0.6,1.6v10.7c-2.2-1.8-4.7-2.6-7.5-2.6	c-3.3,0-6.2,1.2-8.5,3.5c-2.3,2.4-3.5,5.2-3.5,8.5c0,3.3,1.2,6.2,3.5,8.5c2.3,2.3,5.2,3.5,8.5,3.5c3.3,0,6.1-1.2,8.5-3.5	c2.3-2.3,3.5-5.2,3.5-8.5v-20.1c0-0.6-0.2-1.2-0.7-1.6C54,122.8,53.4,122.6,52.8,122.6z" class="st1"/><path id="Shape" d="M146.9,67c-0.2-4.3-2.4-7.9-6.5-11.1l-1.5-1l-1,1.5c-2,3-2.8,7-2.5,10.6c0.2,2.2,1,4.7,2.5,6.5	c-1.1,0.9-4.7,2.6-9.5,2.5H56.9c-1.3,7.6,0.9,36.2,34,36.2c24.6,0,44.8-11,54-34.2c3,0,11.1,0.5,15-7c0.1-0.1,1-2,1-2l-1.5-1	C157.2,66.5,151.2,65.9,146.9,67z" class="st0"/><path id="Fill-21" d="M83.7,98.8c-8.2,2.8-16.9,3.2-18.8,3.2c6.1,5.1,17,14.7,35,9.2C96.6,110.3,88.9,107.3,83.7,98.8z" class="st2"/><path id="Shape_1_" d="M82.8,97c-3.9,2.2-8.5,3.5-13.3,3.5c-2.4,0-4.8-0.3-7.1-0.9c1.4,2.4,1.4,2.4,1.4,2.4	c1.8,0.4,3.7,0.5,5.6,0.5c5.2,0,10.1-1.4,14.3-3.8C83.4,98.2,83.1,97.6,82.8,97z" class="st1"/><ellipse id="Oval" cx="90.4" cy="92.2" class="st2" rx="3.5" ry="3.5"/><path d="M92.4,92.1c-0.1,0.1-0.3,0.1-0.5,0.1c-0.6,0-1-0.5-1-1c0-0.3,0.2-0.6,0.4-0.8c-0.3-0.1-0.6-0.2-0.9-0.2	c-1.1,0-2,0.9-2,2s0.9,2,2,2c1.1,0,2-0.9,2-2C92.4,92.2,92.4,92.1,92.4,92.1z" class="st3"/><path id="Shape_2_" d="M159.5,67.9c-2.2-1.5-8.4-2.2-12.5-1l-0.9,1.3c-13.4,27.7-30.2,39.5-53.1,40	C68,108.1,61.7,94.9,60,77h-4c-0.5,7.6,1.4,35.3,34.8,35.3c24.6,0,44.8-11,54.2-34.2c3.1,0.1,11.6,0.1,15.3-7.6l0.8-1.6L159.5,67.9z" class="st4"/><path id="Shape_3_" d="M160,67.1l2.2,1.5l-0.4,0.8c-0.1,0.2-0.1,0.2-0.2,0.3c-0.1,0.2-0.2,0.5-0.3,0.7	c-0.3,0.6-0.4,0.9-0.5,1.1c-1.7,3.3-4.3,5.4-7.5,6.6c-2.4,0.9-4.6,1.1-7.7,1c-9.2,22.3-28.9,34.2-54.7,34.2	c-15.1,0-25.2-5.8-30.8-15.8C58,93.6,56.7,89.3,56,85c-0.5-3.5-0.5-6.8-0.1-9.2l0.1-0.8h0.8l71.5,0c3.2,0.1,6.2-0.8,8-1.8	c-1.1-1.7-1.8-3.9-2.1-6.2c-0.3-4,0.6-8.1,2.7-11.2l1.6-2.3L141,55c4,3.1,6.2,6.6,6.8,10.7C152.1,64.9,157.6,65.5,160,67.1z M158.9,68.8c-2.1-1.4-7.8-1.9-11.7-0.9l-1.2,0.3l-0.1-1.2c-0.2-3.9-2.2-7.3-6.1-10.3l-0.6-0.4l-0.4,0.7c-1.8,2.7-2.6,6.4-2.3,9.9	c0.2,2.3,1,4.5,2.3,6l0.7,0.8l-0.8,0.6c-2,1.5-5.9,2.8-10.1,2.7H57.8c-0.2,2.1-0.2,4.8,0.2,7.7c0.6,4.1,1.9,8.2,3.9,11.8	c5.2,9.3,14.6,14.8,29,14.8c25.2,0,44.3-11.7,53.1-33.6l0.3-0.6l0.7,0c0.3,0,0.5,0,0.5,0c3,0.1,5-0.1,7.1-0.9c2.8-1,4.9-2.8,6.4-5.6	c0.1-0.2,0.1-0.2,0.2-0.3c0.1-0.2,0.2-0.4,0.3-0.6c0-0.1,0.1-0.2,0.1-0.2L158.9,68.8z" class="st1"/><path id="Rectangle-38-Copy" d="M64,65v10h11V65H64z M62,63h15v14H62V63z" class="st1"/><rect id="Rectangle-5" width="1" height="6" x="66" y="67" class="st1"/><rect id="Rectangle-5_1_" width="1" height="6" x="69" y="67" class="st1"/><rect id="Rectangle-5_2_" width="1" height="6" x="72" y="67" class="st1"/><path id="Rectangle-38-Copy_1_" d="M77,65v10h11V65H77z M75,63h15v14H75V63z" class="st1"/><rect id="Rectangle-5_3_" width="1" height="6" x="79" y="67" class="st1"/><rect id="Rectangle-5_4_" width="1" height="6" x="82" y="67" class="st1"/><rect id="Rectangle-5_5_" width="1" height="6" x="85" y="67" class="st1"/><path id="Rectangle-38-Copy_2_" d="M90,65v10h11V65H90z M88,63h15v14H88V63z" class="st1"/><rect id="Rectangle-5_6_" width="1" height="6" x="92" y="67" class="st1"/><rect id="Rectangle-5_7_" width="1" height="6" x="95" y="67" class="st1"/><rect id="Rectangle-5_8_" width="1" height="6" x="98" y="67" class="st1"/><path id="Rectangle-38-Copy_3_" d="M103,65v10h11V65H103z M101,63h15v14h-15V63z" class="st1"/><rect id="Rectangle-5_9_" width="1" height="6" x="105" y="67" class="st1"/><rect id="Rectangle-5_10_" width="1" height="6" x="108" y="67" class="st1"/><rect id="Rectangle-5_11_" width="1" height="6" x="111" y="67" class="st1"/><path id="Rectangle-38-Copy_4_" d="M116,65v10h11V65H116z M114,63h15v14h-15V63z" class="st1"/><rect id="Rectangle-5_12_" width="1" height="6" x="118" y="67" class="st1"/><rect id="Rectangle-5_13_" width="1" height="6" x="121" y="67" class="st1"/><rect id="Rectangle-5_14_" width="1" height="6" x="124" y="67" class="st1"/><path id="Rectangle-38-Copy_5_" d="M77,53v10h11V53H77z M75,51h15v14H75V51z" class="st1"/><rect id="Rectangle-5_15_" width="1" height="6" x="82" y="55" class="st1"/><rect id="Rectangle-5_16_" width="1" height="6" x="85" y="55" class="st1"/><path id="Rectangle-38-Copy_6_" d="M90,53v10h11V53H90z M88,51h15v14H88V51z" class="st1"/><rect id="Rectangle-5_17_" width="1" height="6" x="92" y="55" class="st1"/><rect id="Rectangle-5_18_" width="1" height="6" x="95" y="55" class="st1"/><rect id="Rectangle-5_19_" width="1" height="6" x="98" y="55" class="st1"/><path id="Rectangle-38-Copy_7_" d="M103,53v10h11V53H103z M101,51h15v14h-15V51z" class="st1"/><rect id="Rectangle-5_20_" width="1" height="6" x="105" y="55" class="st1"/><rect id="Rectangle-5_21_" width="1" height="6" x="108" y="55" class="st1"/><rect id="Rectangle-5_22_" width="1" height="6" x="111" y="55" class="st1"/><path id="Rectangle-38-Copy_8_" d="M103,41v10h11V41H103z M101,39h15v14h-15V39z" class="st1"/><rect id="Rectangle-5_23_" width="1" height="6" x="108" y="43" class="st1"/><rect id="Rectangle-5_24_" width="1" height="6" x="105" y="43" class="st1"/><rect id="Rectangle-5_25_" width="1" height="6" x="111" y="43" class="st1"/><rect id="Rectangle-5_26_" width="1" height="6" x="79" y="55" class="st1"/></svg>